PathFileType	4	(X/Y/Z)	 s06c0001.trc
DataRate	CameraRate	NumFrames	NumMarkers	Units	OrigDataRate	OrigDataStartFrame	OrigNumFrames
200	200	4	49	mm	200	1251	2000
Frame#	Time	racr			lacr			c7			jug			rlel			rdr			llel			ldr			s2			lic			ric			lasi			rasi			rpsi			lpsi			rgt			lgt			rth1			rth2			rth3			rth4			rlfc			rmfc			rsh1			rsh2			rsh3			rsh4			rlmal			rmmal			rcal			rtoe			rmt5			rmt1			lth1			lth2			lth4			lth3			llfc			lmfc			llmal			lmmal			lcal			lmt1			lmt5			lsh1			lsh2			lsh3			lsh4			ltoe			
		X1	Y1	Z1	X2	Y2	Z2	X3	Y3	Z3	X4	Y4	Z4	X5	Y5	Z5	X6	Y6	Z6	X7	Y7	Z7	X8	Y8	Z8	X9	Y9	Z9	X10	Y10	Z10	X11	Y11	Z11	X12	Y12	Z12	X13	Y13	Z13	X14	Y14	Z14	X15	Y15	Z15	X16	Y16	Z16	X17	Y17	Z17	X18	Y18	Z18	X19	Y19	Z19	X20	Y20	Z20	X21	Y21	Z21	X22	Y22	Z22	X23	Y23	Z23	X24	Y24	Z24	X25	Y25	Z25	X26	Y26	Z26	X27	Y27	Z27	X28	Y28	Z28	X29	Y29	Z29	X30	Y30	Z30	X31	Y31	Z31	X32	Y32	Z32	X33	Y33	Z33	X34	Y34	Z34	X35	Y35	Z35	X36	Y36	Z36	X37	Y37	Z37	X38	Y38	Z38	X39	Y39	Z39	X40	Y40	Z40	X41	Y41	Z41	X42	Y42	Z42	X43	Y43	Z43	X44	Y44	Z44	X45	Y45	Z45	X46	Y46	Z46	X47	Y47	Z47	X48	Y48	Z48	X49	Y49	Z49	
1251	6.2550	226.830101	1420.305677	399.139348	229.422739	1430.768287	43.344638	189.527968	1491.109099	218.263498	311.244626	1397.516711	224.417112	249.541256	1203.965737	578.451489	354.684667	1048.327045	769.329727	237.195593	1208.056318	-127.713352	334.906217	1070.152707	-327.493281	114.150458	965.140073	230.703177	267.161231	1009.646927	51.555192	277.485963	987.352625	388.790069	319.594320	956.432344	80.781481	330.460908	945.767686	350.452455	137.819296	998.805126	258.289870	124.429426	996.051158	194.424757	239.067147	872.204028	401.754992	244.788763	897.452281	28.333774	249.851974	749.832981	420.729065	258.441036	660.259577	414.023876	222.417096	582.231045	400.431013	294.954404	656.013057	404.649768	205.035671	473.524582	380.638942	220.085037	450.397334	272.462229	174.313407	353.255899	402.111023	188.125448	267.723249	382.036048	159.736642	186.536674	370.600262	216.675198	269.810586	354.715576	154.738775	99.809657	358.385102	199.930655	122.011227	273.243216	109.536012	65.703942	297.049818	382.180475	75.475233	334.590068	280.694330	43.246567	392.360487	303.963393	59.700383	276.980287	228.777558	764.545930	12.509548	242.528487	678.289160	17.356553	278.810743	674.951476	25.849029	210.456389	595.775870	29.321119	181.794120	477.329625	49.806480	202.655598	455.989726	159.901355	154.623682	99.299221	56.025197	171.112091	121.991441	141.086152	100.983617	58.906794	110.554629	310.811112	52.353715	132.986251	290.060583	51.054068	17.869728	159.551582	370.920409	24.003057	177.013565	286.094307	36.890355	149.958376	202.195127	38.013372	207.783205	286.479502	61.572552	380.386457	71.489079	69.479787	
1252	6.2600	226.820987	1420.324896	399.141020	229.399012	1430.765817	43.364617	189.510828	1491.098387	218.241026	311.243139	1397.519512	224.413997	249.522611	1203.985250	578.452199	354.706173	1048.339526	769.303990	237.164787	1208.064504	-127.723287	334.816585	1070.125254	-327.418900	114.115082	965.149869	230.714415	267.155765	1009.642755	51.559227	277.468902	987.308092	388.789247	319.551799	956.426542	80.765946	330.454230	945.763970	350.444674	137.779348	998.800192	258.293368	124.387006	996.048422	194.431337	239.068475	872.227561	401.757590	244.760582	897.439219	28.337117	249.837356	749.848155	420.733638	258.440248	660.261229	414.030209	222.415880	582.216415	400.456141	294.963152	656.009217	404.660467	205.026313	473.522768	380.635616	220.071930	450.398145	272.485251	174.322683	353.215123	402.139060	188.143738	267.725996	382.062392	159.734568	186.538429	370.609529	216.678263	269.827382	354.732824	154.731276	99.807356	358.383657	199.912740	122.018569	273.255151	109.536094	65.717681	297.039843	382.182924	75.493664	334.606694	280.667114	43.249686	392.368981	303.967145	59.708925	276.987897	228.759401	764.548290	12.499924	242.506697	678.301777	17.344013	278.795807	674.987307	25.812419	210.442939	595.778878	29.330740	181.786717	477.338092	49.798664	202.640910	455.973520	159.885014	154.626169	99.293835	56.035459	171.115932	121.997351	141.084611	100.996901	58.905932	110.548587	310.785807	52.357017	132.988886	290.056201	51.055208	17.859479	159.544352	370.931045	23.993206	177.012747	286.105950	36.908858	149.952328	202.189435	38.016460	207.775845	286.478890	61.576133	380.381007	71.505837	69.492431	
1253	6.2650	226.792672	1420.325104	399.135865	229.382498	1430.772690	43.355730	189.507172	1491.098940	218.227478	311.229699	1397.523146	224.401991	249.510405	1203.993681	578.448251	354.720800	1048.357007	769.300669	237.140408	1208.069289	-127.713235	334.895998	1070.155586	-327.494599	114.098478	965.124633	230.721239	267.085141	1009.665692	51.543476	277.450410	987.296716	388.767412	319.528404	956.429557	80.789212	330.414161	945.758161	350.453056	137.770897	998.795099	258.301478	124.348390	996.058692	194.434704	239.058136	872.197180	401.764064	244.735068	897.453586	28.352011	249.818697	749.850739	420.740448	258.428425	660.254447	414.025532	222.407205	582.225973	400.451982	294.941581	656.013218	404.651882	205.020877	473.539886	380.636552	220.083635	450.386812	272.498015	174.327365	353.212976	402.136706	188.123670	267.707913	382.046285	159.746295	186.524730	370.615934	216.675956	269.820894	354.719180	154.713222	99.798484	358.393316	199.912696	122.020509	273.252576	109.536088	65.717676	297.039843	382.181193	75.490682	334.598931	280.674840	43.253928	392.376078	303.964790	59.694559	276.984540	228.740048	764.541923	12.507758	242.478152	678.304147	17.334881	278.761730	674.990767	25.830238	210.411601	595.777670	29.326916	181.760769	477.334468	49.803106	202.633617	455.999929	159.889124	154.621006	99.293892	56.047689	171.105234	122.002463	141.083153	101.004524	58.894889	110.554581	310.803711	52.345336	132.983694	290.050964	51.050254	17.869790	159.523245	370.913036	23.997354	176.998227	286.101537	36.899931	149.939006	202.200548	38.024533	207.752574	286.488442	61.577546	380.373280	71.496631	69.483074	
1254	6.2700	226.774380	1420.329775	399.124709	229.373144	1430.764271	43.326662	189.475426	1491.108436	218.243530	311.213586	1397.523687	224.409316	249.501661	1203.991788	578.449608	354.720494	1048.373466	769.296724	237.123015	1208.073107	-127.716988	334.885317	1070.162272	-327.495248	114.086627	965.129762	230.730780	267.066880	1009.658908	51.545293	277.429295	987.298323	388.794259	319.501063	956.431423	80.772189	330.412344	945.768730	350.439878	137.734841	998.797453	258.304268	124.320454	996.053181	194.449231	239.049003	872.205297	401.767984	244.718360	897.452913	28.348219	249.817725	749.835714	420.743199	258.424906	660.263297	414.024244	222.394297	582.251098	400.475509	294.930610	656.003813	404.663713	205.014022	473.528502	380.649356	220.055207	450.397375	272.487452	174.300402	353.243527	402.134186	188.122870	267.716156	382.046512	159.756428	186.512264	370.613874	216.659167	269.821861	354.723322	154.728605	99.802115	358.396085	199.916205	122.009794	273.260825	109.536081	65.717670	297.039844	382.163967	75.490360	334.599426	280.693174	43.245980	392.369269	303.983125	59.719612	276.977588	228.706162	764.546508	12.507378	242.456757	678.288692	17.345167	278.735147	674.968880	25.804562	210.391736	595.775014	29.318870	181.751610	477.327049	49.820367	202.604814	455.994824	159.882972	154.611008	99.283598	56.037373	171.087585	121.979339	141.083014	100.984862	58.903958	110.550747	310.798727	52.333152	132.971208	290.051369	51.057410	17.860470	159.514032	370.921908	23.988772	176.994856	286.086417	36.899527	149.936241	202.194288	38.016405	207.753408	286.479611	61.585360	380.370162	71.514996	69.490378	
